<?xml version="1.0" encoding="UTF-8" standalone="no"?>
<svg
   xmlns:svg="http://www.w3.org/2000/svg"
   xmlns="http://www.w3.org/2000/svg"   
   viewBox="273.2 530 249.3 62.6"   
   xml:space="preserve"
   id="svg2"
   version="1.1">
   <g
     transform="matrix(1.3333333,0,0,-1.3333333,0,1122.5195)"
     id="g10"><path
       id="path12"
       style="fill:#f89c0e;fill-opacity:1;fill-rule:nonzero;stroke:none"
       d="m 282.4292,439.60742 c -10.2959,0 -18.64844,-8.36426 -18.64844,-18.6748 0,-10.31641 8.35254,-18.66602 18.64844,-18.66602 10.31348,0 18.67334,8.34961 18.67334,18.66602 0,10.31054 -8.35986,18.6748 -18.67334,18.6748 m 0.32422,-33.33496 c -8.08008,0 -14.65674,6.57617 -14.65674,14.65967 0,8.07764 6.57666,14.64892 14.65674,14.64892 8.08008,0 14.65137,-6.57128 14.65137,-14.64892 0,-8.0835 -6.57129,-14.65967 -14.65137,-14.65967 z" /><path
       id="path14"
       style="fill:#272b35;fill-opacity:1;fill-rule:nonzero;stroke:none"
       d="m 259.61182,420.93213 c 0,-12.57666 10.24072,-22.83838 22.8164,-22.83838 12.59571,0 22.83838,10.26172 22.83838,22.83838 0,12.60107 -10.24267,22.81689 -22.83838,22.81689 -12.57568,0 -22.8164,-10.21582 -22.8164,-22.81689 m 4.27099,0 c 0,10.23486 8.32764,18.56201 18.54541,18.56201 10.24121,0 18.57862,-8.32715 18.57862,-18.56201 0,-10.229 -8.33741,-18.55322 -18.57862,-18.55322 -10.21777,0 -18.54541,8.32422 -18.54541,18.55322 z" /><path
       id="path16"
       style="fill:#272b35;fill-opacity:1;fill-rule:nonzero;stroke:none"
       d="m 244.51172,397.87402 -8.49561,0.0684 -21.08496,20.93457 -3.7998,-0.0273 V 397.8741 h -6.11719 v 46.11621 h 6.11719 v -19.84668 l 3.85107,0.0225 18.79297,19.82421 h 8.10498 l -21.51709,-22.17089 24.14844,-23.94532 z" /><path
       id="path18"
       style="fill:#272b35;fill-opacity:1;fill-rule:nonzero;stroke:none"
       d="m 253.6626,397.87402 h -6.10742 v 46.11621 h 6.10742 z" /><path
       id="path20"
       style="fill:#272b35;fill-opacity:1;fill-rule:nonzero;stroke:none"
       d="m 345.93066,411.16406 c 0,-5.93652 -1.54882,-9.83691 -4.58984,-11.70605 -2.09375,-1.26563 -6.625,-1.8877 -13.57617,-1.8877 -3.3711,0 -6.11328,0.19043 -8.20899,0.56836 -2.11328,0.38574 -3.74414,1.01563 -4.91406,1.89063 -2.75,2.11035 -4.12695,6.45996 -4.12695,13.00488 h 6.13281 c 0,-4.67383 0.65234,-7.58691 1.99219,-8.76367 0.53711,-0.36035 1.5664,-0.66309 3.08984,-0.88379 1.49219,-0.21192 3.50391,-0.31738 6.03516,-0.31738 4.25586,0 6.89844,0.12109 7.89844,0.37109 2.74804,0.54492 4.13281,3.19727 4.13281,7.9248 0,3.13965 -0.70899,5.2129 -2.06641,6.23145 -1.11719,0.75684 -3.20898,1.15527 -6.32226,1.15527 h -3.51563 c -6.02539,0 -10.06836,0.47071 -12.16015,1.37061 -3.48633,1.62353 -5.2168,5.19385 -5.2168,10.69189 0,5.67285 1.4375,9.42188 4.3457,11.27637 2.33203,1.45996 6.71094,2.20606 13.11524,2.20606 6.05859,0 10.1875,-0.60157 12.35937,-1.78711 3.18164,-1.82032 4.75195,-5.75098 4.75195,-11.79493 h -6.10937 c 0,3.74317 -0.61914,6.03711 -1.87695,6.88672 -1.24024,0.86133 -4.34375,1.28809 -9.28711,1.28809 -4.85743,0 -7.93164,-0.41895 -9.17383,-1.24414 -1.25586,-0.76074 -1.89844,-2.71485 -1.89844,-5.84278 0,-3.29101 0.75,-5.45996 2.27344,-6.5 1.1914,-0.76171 3.4707,-1.15918 6.90234,-1.15918 h 3.11914 c 6.44141,0 10.64649,-0.59472 12.63086,-1.79589 2.84766,-1.64942 4.26367,-5.39161 4.26367,-11.1836 z" /><path
       id="path22"
       style="fill:#272b35;fill-opacity:1;fill-rule:nonzero;stroke:none"
       d="m 391.77441,397.87402 -8.47265,0.0684 -21.07031,20.93457 -3.80665,-0.0273 V 397.8741 h -6.13281 v 46.11621 h 6.13281 v -19.84668 l 3.85938,0.0225 18.76367,19.82421 h 8.0957 l -21.48046,-22.17089 24.11132,-23.94532 z" /><path
       id="path24"
       style="fill:#272b35;fill-opacity:1;fill-rule:nonzero;stroke:none"
       d="m 282.75342,432.94141 c -6.62403,0 -12.01514,-5.38868 -12.01514,-12.00928 0,-6.62549 5.39111,-12.01709 12.01514,-12.01709 6.62207,0 12.01074,5.3916 12.01074,12.01709 0,6.6206 -5.38867,12.00928 -12.01074,12.00928 z" /></g></svg>
