<?xml version="1.0" standalone="no"?>
<!DOCTYPE svg PUBLIC "-//W3C//DTD SVG 20010904//EN"
 "http://www.w3.org/TR/2001/REC-SVG-20010904/DTD/svg10.dtd">
<svg version="1.0" xmlns="http://www.w3.org/2000/svg"
 width="438.000000pt" height="438.000000pt" viewBox="0 0 438.000000 438.000000"
 preserveAspectRatio="xMidYMid meet">
<metadata>
Created by potrace 1.11, written by Peter Selinger 2001-2013
</metadata>
<g transform="translate(0.000000,438.000000) scale(0.100000,-0.100000)"
fill="#000000" stroke="none">
<path d="M2097 4373 c-2 -1 -36 -5 -77 -7 -41 -3 -91 -8 -110 -10 -149 -22
-158 -24 -225 -42 -33 -8 -68 -15 -77 -15 -10 0 -18 -5 -18 -10 0 -6 -6 -9
-12 -6 -7 2 -25 -2 -40 -10 -15 -7 -29 -13 -30 -12 -7 2 -67 -16 -106 -32 -23
-10 -43 -18 -45 -17 -1 1 -13 -5 -27 -12 -14 -8 -27 -15 -30 -15 -3 0 -16 -7
-30 -15 -14 -7 -27 -14 -30 -14 -3 -1 -4 -5 -2 -9 1 -5 -1 -6 -6 -3 -11 7 -62
-16 -62 -27 0 -5 -4 -5 -10 -2 -5 3 -10 1 -10 -5 0 -6 -4 -9 -9 -5 -6 3 -14
-3 -20 -12 -6 -10 -11 -15 -11 -10 0 10 -53 -18 -69 -37 -7 -9 -17 -13 -22
-10 -5 3 -9 0 -9 -7 0 -7 -3 -10 -6 -6 -6 6 -17 -2 -59 -41 -14 -13 -25 -19
-25 -15 0 4 -7 -1 -15 -11 -8 -11 -15 -17 -15 -13 0 8 -32 -17 -74 -58 -17
-16 -30 -28 -31 -25 -1 21 -229 -211 -313 -320 -23 -30 -46 -61 -52 -67 -6 -7
-10 -16 -9 -19 0 -4 -3 -10 -8 -13 -21 -15 -93 -133 -87 -143 4 -6 3 -8 -3 -5
-8 5 -38 -41 -34 -51 1 -1 -5 -10 -14 -18 -8 -9 -13 -20 -10 -25 4 -5 2 -9 -3
-9 -13 0 -33 -50 -26 -62 4 -6 2 -8 -3 -5 -10 6 -22 -11 -28 -38 -2 -6 -12
-32 -24 -57 -11 -26 -21 -54 -21 -62 0 -9 -4 -16 -10 -16 -5 0 -10 -10 -10
-23 0 -13 -3 -27 -8 -31 -4 -4 -8 -12 -8 -17 -1 -5 -2 -10 -4 -11 -1 -2 -4
-12 -6 -23 -8 -34 -12 -50 -14 -50 -2 0 -8 -21 -30 -115 -17 -77 -23 -108 -36
-190 -24 -160 -23 -443 2 -605 2 -16 6 -46 8 -65 3 -19 5 -35 6 -35 1 0 4 -13
6 -30 3 -16 8 -32 12 -35 6 -5 11 -35 13 -82 0 -10 5 -18 11 -18 6 0 9 -3 5
-6 -3 -3 1 -27 9 -52 16 -50 22 -72 23 -85 1 -5 5 -6 10 -3 5 4 7 -3 4 -14 -3
-12 0 -20 6 -20 7 0 10 -4 7 -9 -3 -5 4 -31 16 -57 12 -27 23 -56 24 -64 2 -8
11 -20 20 -27 10 -7 12 -13 6 -13 -7 0 -12 -5 -12 -11 0 -5 4 -8 9 -4 5 3 13
-5 17 -17 3 -13 16 -36 27 -52 13 -19 16 -27 6 -22 -7 4 -5 0 5 -8 11 -9 16
-16 12 -16 -4 0 1 -12 11 -27 10 -16 25 -40 33 -55 7 -16 17 -28 22 -28 4 0 8
-7 8 -16 0 -9 5 -12 13 -8 6 4 9 4 5 -1 -9 -9 27 -73 51 -93 9 -7 16 -16 16
-21 0 -4 7 -15 15 -24 8 -9 20 -22 25 -29 29 -39 125 -147 166 -187 66 -66
133 -126 136 -124 2 2 16 -11 33 -29 16 -17 30 -28 30 -24 0 4 11 -4 24 -18
13 -15 28 -26 35 -26 6 0 11 -5 11 -11 0 -5 4 -7 10 -4 5 3 10 2 10 -3 0 -9
76 -62 90 -62 5 0 10 -4 12 -8 3 -9 88 -60 101 -61 4 0 19 -9 34 -20 14 -12
29 -18 34 -15 5 3 9 1 9 -3 0 -9 72 -43 90 -43 6 0 10 -5 10 -11 0 -5 5 -7 11
-3 6 3 14 2 18 -4 3 -5 15 -12 26 -14 11 -1 22 -6 25 -9 4 -5 127 -49 150 -54
3 -1 25 -7 50 -15 49 -14 62 -18 100 -25 56 -11 106 -23 123 -30 11 -5 17 -3
17 6 0 10 3 10 8 3 4 -6 31 -14 61 -18 29 -4 57 -9 62 -11 4 -3 10 -1 14 5 4
6 11 7 17 4 19 -12 59 -15 198 -14 139 0 217 5 260 14 14 2 48 7 75 10 68 8
83 11 91 18 3 4 12 4 20 1 8 -3 14 0 14 7 0 6 4 8 10 5 5 -3 35 1 67 10 32 9
63 17 68 18 34 9 213 71 230 80 11 6 25 12 30 12 6 1 9 6 8 12 -1 6 6 9 17 6
12 -3 20 0 20 8 0 7 3 9 7 6 3 -4 12 -2 20 4 7 6 13 8 13 5 0 -4 17 5 37 19
21 14 41 25 45 25 19 0 223 131 269 172 10 10 19 15 19 10 0 -4 4 -2 8 3 4 6
32 30 62 55 81 66 219 203 214 212 -3 4 0 8 6 8 13 0 66 61 63 72 -2 4 0 7 5
5 4 -1 8 1 10 6 1 4 10 16 20 26 46 50 60 68 72 91 7 14 16 27 19 30 14 11 64
95 64 107 0 7 3 10 7 8 7 -4 65 105 62 118 -1 4 2 7 7 7 9 0 24 38 22 53 -1 4
5 10 13 13 8 3 12 12 9 20 -3 8 0 14 7 14 6 0 8 5 5 10 -3 6 -1 10 6 10 7 0 9
3 6 7 -4 3 -2 12 5 20 6 7 8 16 5 19 -3 4 1 13 9 21 8 9 13 22 10 30 -3 8 -2
12 2 9 4 -2 16 26 26 62 11 37 23 72 28 79 6 7 7 17 4 22 -4 5 -2 13 4 16 6 4
8 15 5 26 -4 10 -2 19 3 19 5 0 12 17 15 38 4 20 11 60 17 87 14 62 19 95 22
151 2 24 5 44 8 44 6 0 8 74 9 225 0 125 -3 168 -23 330 -4 34 -17 99 -27 130
-4 17 -11 45 -14 64 -3 19 -10 42 -15 51 -5 10 -7 20 -3 23 3 4 0 13 -6 21 -7
8 -10 20 -6 26 3 5 1 10 -5 10 -6 0 -10 6 -9 13 2 6 -5 29 -14 51 -9 21 -17
44 -17 50 0 6 -6 20 -14 31 -7 11 -14 25 -14 30 -2 21 -76 175 -84 175 -5 0
-6 5 -3 10 3 6 1 10 -4 10 -6 0 -10 3 -9 8 3 12 -32 72 -42 72 -5 0 -7 7 -4
15 4 8 1 15 -6 15 -6 0 -9 4 -6 9 3 5 -1 11 -9 15 -8 3 -15 12 -15 21 0 8 -5
15 -12 15 -6 0 -9 3 -5 6 6 6 -4 21 -37 54 -11 11 -16 20 -10 20 5 0 1 5 -8
11 -10 5 -18 14 -18 19 0 6 -8 19 -17 29 -10 11 -34 39 -53 62 -69 85 -173
188 -183 182 -6 -3 -7 -2 -4 4 4 6 -14 28 -40 49 -26 22 -52 45 -60 52 -7 7
-13 10 -13 6 0 -4 -9 5 -21 20 -11 14 -26 26 -34 26 -7 0 -16 7 -19 16 -3 8
-10 13 -15 10 -5 -3 -12 1 -15 10 -3 8 -10 13 -14 10 -5 -3 -15 4 -22 15 -8
10 -18 19 -22 19 -3 0 -33 17 -65 38 -32 20 -76 46 -98 57 -22 10 -47 24 -55
31 -8 6 -32 17 -52 25 -21 7 -38 16 -38 19 0 4 -6 7 -12 7 -7 0 -33 9 -58 21
-25 11 -64 26 -87 33 -24 7 -43 17 -43 22 0 6 -3 7 -7 4 -3 -4 -13 -1 -21 6
-13 10 -14 9 -8 -1 7 -12 4 -12 -15 -1 -13 7 -33 15 -44 17 -26 5 -37 8 -55
15 -23 10 -201 44 -270 53 -103 12 -366 25 -373 17z"/>
</g>
</svg>
